<svg width="17" height="17" viewBox="0 0 17 17" fill="none" xmlns="http://www.w3.org/2000/svg">
<path d="M9.06732 5.82558C9.06732 5.51226 8.81332 5.25825 8.49999 5.25825C8.18666 5.25825 7.93266 5.51226 7.93266 5.82558V7.93269L5.82558 7.93269C5.51225 7.93269 5.25824 8.18669 5.25824 8.50002C5.25824 8.81335 5.51225 9.06736 5.82558 9.06736L7.93266 9.06736V11.1744C7.93266 11.4877 8.18666 11.7417 8.49999 11.7417C8.81332 11.7417 9.06732 11.4877 9.06732 11.1744L9.06732 9.06736H11.1744C11.4877 9.06735 11.7417 8.81335 11.7417 8.50002C11.7417 8.18669 11.4877 7.93269 11.1744 7.93269H9.06732L9.06732 5.82558Z" fill="#4A413D"/>
<path fill-rule="evenodd" clip-rule="evenodd" d="M14.25 2.75002C11.0744 -0.425629 5.92563 -0.425629 2.74998 2.75002C-0.425666 5.92567 -0.425665 11.0744 2.74998 14.2501C5.92563 17.4257 11.0744 17.4257 14.25 14.2501C17.4257 11.0744 17.4257 5.92567 14.25 2.75002ZM3.55231 3.55235C6.28484 0.819812 10.7152 0.819812 13.4477 3.55235C16.1802 6.28488 16.1802 10.7152 13.4477 13.4477C10.7152 16.1803 6.28484 16.1803 3.55231 13.4477C0.819775 10.7152 0.819776 6.28488 3.55231 3.55235Z" fill="#4A413D"/>
</svg>
