<svg width="21" height="22" viewBox="0 0 21 22" fill="none" xmlns="http://www.w3.org/2000/svg">
<path fill-rule="evenodd" clip-rule="evenodd" d="M13.4451 3.16226e-07H9.38865C7.5509 -1.53615e-05 6.09526 -2.77907e-05 4.95605 0.153135C3.78362 0.310763 2.83468 0.642881 2.08631 1.39124C1.33795 2.13961 1.00583 3.08856 0.848204 4.26098C0.695041 5.40019 0.695053 6.85582 0.695069 8.69357V14.75C0.695069 16.6222 2.06712 18.174 3.86058 18.4547C3.99855 19.2187 4.2626 19.8708 4.79342 20.4017C5.39534 21.0036 6.15321 21.2625 7.05332 21.3835C7.92029 21.5 9.02261 21.5 10.3902 21.5H13.4999C14.8675 21.5 15.9699 21.5 16.8368 21.3835C17.7369 21.2625 18.4948 21.0036 19.0967 20.4017C19.6986 19.7997 19.9575 19.0419 20.0785 18.1418C20.1951 17.2748 20.1951 16.1725 20.1951 14.8049V9.69513C20.1951 8.32754 20.1951 7.22522 20.0785 6.35825C19.9575 5.45814 19.6986 4.70027 19.0967 4.09835C18.5659 3.56753 17.9138 3.30348 17.1498 3.16551C16.8691 1.37205 15.3173 3.16226e-07 13.4451 3.16226e-07ZM15.5744 3.02117C15.2716 2.13623 14.4326 1.5 13.4451 1.5H9.44507C7.53825 1.5 6.18358 1.50159 5.15592 1.63976C4.14983 1.77502 3.57018 2.02869 3.14697 2.4519C2.72376 2.87511 2.47009 3.45476 2.33483 4.46085C2.19666 5.48851 2.19507 6.84318 2.19507 8.75V14.75C2.19507 15.7376 2.8313 16.5765 3.71624 16.8793C3.69505 16.2694 3.69506 15.5797 3.69507 14.8049V9.69513C3.69505 8.32754 3.69503 7.22522 3.81159 6.35825C3.93261 5.45814 4.1915 4.70027 4.79342 4.09835C5.39534 3.49643 6.15321 3.23754 7.05332 3.11652C7.92029 2.99996 9.0226 2.99998 10.3902 3H13.4999C14.2748 2.99999 14.9644 2.99998 15.5744 3.02117ZM5.85408 5.15901C6.13084 4.88225 6.51941 4.7018 7.25319 4.60315C8.00854 4.50159 9.00965 4.5 10.4451 4.5H13.4451C14.8805 4.5 15.8816 4.50159 16.6369 4.60315C17.3707 4.7018 17.7593 4.88225 18.0361 5.15901C18.3128 5.43577 18.4933 5.82435 18.5919 6.55812C18.6935 7.31347 18.6951 8.31458 18.6951 9.75V14.75C18.6951 16.1854 18.6935 17.1865 18.5919 17.9419C18.4933 18.6757 18.3128 19.0642 18.0361 19.341C17.7593 19.6178 17.3707 19.7982 16.6369 19.8969C15.8816 19.9984 14.8805 20 13.4451 20H10.4451C9.00965 20 8.00854 19.9984 7.25319 19.8969C6.51941 19.7982 6.13084 19.6178 5.85408 19.341C5.57732 19.0642 5.39687 18.6757 5.29822 17.9419C5.19666 17.1865 5.19507 16.1854 5.19507 14.75V9.75C5.19507 8.31458 5.19666 7.31347 5.29822 6.55812C5.39687 5.82435 5.57732 5.43577 5.85408 5.15901Z" fill="#1C274C"/>
</svg>
