<svg width="18" height="22" viewBox="0 0 18 22" fill="none" xmlns="http://www.w3.org/2000/svg">
<path fill-rule="evenodd" clip-rule="evenodd" d="M11.3492 1.14109C12.8707 -0.380364 15.3375 -0.380364 16.8589 1.14109C18.3804 2.66255 18.3804 5.12932 16.8589 6.65077L9.26491 14.2448C8.83692 14.6728 8.57554 14.9342 8.28422 15.1615C7.94099 15.4292 7.56961 15.6587 7.17667 15.846C6.84315 16.0049 6.49244 16.1218 5.91818 16.3132L3.24553 17.2041L2.60386 17.418C2.02951 17.6094 1.39629 17.4599 0.968195 17.0318C0.540099 16.6037 0.390617 15.9705 0.582067 15.3962L1.68683 12.0818C1.87822 11.5076 1.9951 11.1569 2.15405 10.8234C2.34132 10.4304 2.57084 10.059 2.83856 9.7158C3.06578 9.42448 3.32719 9.1631 3.75525 8.73509L11.3492 1.14109ZM3.21092 15.6345L2.36556 14.7891L3.09398 12.6038C3.30606 11.9676 3.39366 11.7089 3.50814 11.4687C3.64854 11.1741 3.82061 10.8957 4.02132 10.6383C4.18497 10.4285 4.37718 10.2345 4.85141 9.76025L10.7424 3.86927C10.9855 4.47927 11.397 5.21549 12.0908 5.90927C12.7845 6.60306 13.5208 7.01447 14.1307 7.25764L8.23977 13.1486C7.76554 13.6228 7.5715 13.815 7.36169 13.9787C7.10436 14.1794 6.82594 14.3515 6.53134 14.4919C6.29113 14.6064 6.03244 14.694 5.39619 14.906L3.21092 15.6345ZM15.326 6.06241C15.2021 6.03522 15.0473 5.99432 14.8713 5.93325C14.3873 5.76532 13.7506 5.44778 13.1514 4.84861C12.5522 4.24944 12.2347 3.61276 12.0668 3.12873C12.0057 2.9527 11.9648 2.79787 11.9376 2.67404L12.4099 2.20175C13.3456 1.26608 14.8626 1.26608 15.7983 2.20175C16.7339 3.13742 16.7339 4.65444 15.7983 5.59011L15.326 6.06241ZM0.50002 20.75C0.50002 20.3358 0.835807 20 1.25002 20H17.25V21.5H1.25002C0.835807 21.5 0.50002 21.1642 0.50002 20.75Z" fill="#FFA200"/>
</svg>
