<svg width="40" height="41" viewBox="0 0 40 41" fill="none" xmlns="http://www.w3.org/2000/svg">
<circle cx="20" cy="20.5" r="20" fill="#F5F6FA"/>
<g clip-path="url(#clip0_21_1060)">
<path d="M19.2383 29.5C17.6881 29.5 16.4258 28.2385 16.4258 26.6875C16.4258 26.377 16.6778 26.125 16.9883 26.125C17.2988 26.125 17.5508 26.377 17.5508 26.6875C17.5508 27.6183 18.3083 28.375 19.2383 28.375C20.1683 28.375 20.9258 27.6183 20.9258 26.6875C20.9258 26.377 21.1778 26.125 21.4883 26.125C21.7988 26.125 22.0508 26.377 22.0508 26.6875C22.0508 28.2385 20.7886 29.5 19.2383 29.5Z" fill="#FE5C73"/>
<path d="M25.4257 27.25H13.0507C12.327 27.25 11.7383 26.6613 11.7383 25.9375C11.7383 25.5534 11.9055 25.1898 12.1972 24.94C12.216 24.9235 12.2362 24.9085 12.2572 24.8949C13.3582 23.9342 13.9883 22.552 13.9883 21.0924V19C13.9883 16.1051 16.344 13.75 19.2382 13.75C19.3583 13.75 19.488 13.7522 19.6081 13.7725C19.9147 13.8235 20.1218 14.1138 20.0707 14.4198C20.0198 14.7257 19.7242 14.9328 19.4235 14.8817C19.3635 14.872 19.2976 14.875 19.2382 14.875C16.9643 14.875 15.1133 16.7252 15.1133 19V21.0924C15.1133 22.9045 14.319 24.619 12.9361 25.7957C12.9248 25.8047 12.9151 25.813 12.903 25.8212C12.8828 25.8468 12.8633 25.8858 12.8633 25.9375C12.8633 26.0394 12.9488 26.125 13.0507 26.125H25.4257C25.5278 26.125 25.6133 26.0394 25.6133 25.9375C25.6133 25.8849 25.5938 25.8468 25.5728 25.8212C25.5616 25.813 25.5518 25.8047 25.5405 25.7957C24.1568 24.6182 23.3633 22.9045 23.3633 21.0924V20.2751C23.3633 19.9646 23.6153 19.7126 23.9258 19.7126C24.2363 19.7126 24.4883 19.9646 24.4883 20.2751V21.0924C24.4883 22.5528 25.1191 23.9357 26.2216 24.8973C26.2417 24.9107 26.2612 24.925 26.2792 24.9408C26.5711 25.1898 26.7383 25.5534 26.7383 25.9375C26.7383 26.6613 26.1496 27.25 25.4257 27.25Z" fill="#FE5C73"/>
<path d="M24.4883 19C22.4206 19 20.7383 17.3178 20.7383 15.25C20.7383 13.1823 22.4206 11.5 24.4883 11.5C26.5561 11.5 28.2382 13.1823 28.2382 15.25C28.2382 17.3178 26.5561 19 24.4883 19ZM24.4883 12.625C23.0407 12.625 21.8633 13.8025 21.8633 15.25C21.8633 16.6975 23.0407 17.875 24.4883 17.875C25.9358 17.875 27.1132 16.6975 27.1132 15.25C27.1132 13.8025 25.9358 12.625 24.4883 12.625Z" fill="#FE5C73"/>
</g>
<defs>
<clipPath id="clip0_21_1060">
<rect width="18" height="18" fill="white" transform="translate(11 11.5)"/>
</clipPath>
</defs>
</svg>
