<svg width="41" height="41" viewBox="0 0 41 41" fill="none" xmlns="http://www.w3.org/2000/svg">
<path opacity="0.21" fill-rule="evenodd" clip-rule="evenodd" d="M41 20.5C41 31.8218 31.8218 41 20.5 41C9.17816 41 0 31.8218 0 20.5C0 9.17816 9.17816 0 20.5 0C31.8218 0 41 9.17816 41 20.5Z" fill="#8280FF"/>
<path opacity="0.587821" fill-rule="evenodd" clip-rule="evenodd" d="M14.1222 15.9444C14.1222 17.9572 15.7539 19.5889 17.7666 19.5889C19.7794 19.5889 21.4111 17.9572 21.4111 15.9444C21.4111 13.9317 19.7794 12.3 17.7666 12.3C15.7539 12.3 14.1222 13.9317 14.1222 15.9444ZM23.2333 19.5889C23.2333 21.0985 24.457 22.3222 25.9666 22.3222C27.4762 22.3222 28.6999 21.0985 28.6999 19.5889C28.6999 18.0793 27.4762 16.8555 25.9666 16.8555C24.457 16.8555 23.2333 18.0793 23.2333 19.5889Z" fill="#8280FF"/>
<path fill-rule="evenodd" clip-rule="evenodd" d="M17.7515 21.4111C13.4497 21.4111 9.9204 23.622 9.56724 27.9704C9.54801 28.2073 10.001 28.7 10.2295 28.7H25.2803C25.9648 28.7 25.9754 28.1492 25.9648 27.9711C25.6978 23.5005 22.1138 21.4111 17.7515 21.4111ZM30.9376 28.7H29.3598C28.2909 28.7 27.4408 27.7721 27.2105 26.7283C26.8647 25.1608 28.004 23.3711 29.3369 24.2656C30.5359 25.0702 31.3285 26.3548 31.432 28.1533C31.4396 28.2869 31.432 28.7 30.9376 28.7Z" fill="#8280FF"/>
</svg>
