<svg width="41" height="41" viewBox="0 0 41 41" fill="none" xmlns="http://www.w3.org/2000/svg">
<path opacity="0.21" fill-rule="evenodd" clip-rule="evenodd" d="M41 20.5C41 31.8218 31.8218 41 20.5 41C9.17816 41 0 31.8218 0 20.5C0 9.17816 9.17816 0 20.5 0C31.8218 0 41 9.17816 41 20.5Z" fill="#4AD991"/>
<path d="M13.0593 22.4741C13.0593 25.4932 15.5068 27.9407 18.5259 27.9407H29.0037C29.5908 27.9407 30.0667 28.4166 30.0667 29.0037C30.0667 29.5907 29.5908 30.0667 29.0037 30.0667H11.9963C11.4093 30.0667 10.9333 29.5907 10.9333 29.0037V11.9963C10.9333 11.4092 11.4093 10.9333 11.9963 10.9333C12.5834 10.9333 13.0593 11.4092 13.0593 11.9963V22.4741Z" fill="#4AD991"/>
<path opacity="0.5" d="M17.0236 23.3529C16.6221 23.7812 15.9494 23.8029 15.5211 23.4014C15.0929 22.9998 15.0712 22.3272 15.4727 21.8989L19.4588 17.647C19.8471 17.2328 20.4924 17.1969 20.9242 17.5655C22.642 19.0313 25.2338 18.7764 26.6331 17.004L28.1694 15.058C28.5332 14.5972 29.2016 14.5186 29.6624 14.8823C30.1231 15.2461 30.2018 15.9145 29.838 16.3753L25.0547 22.4342C24.6811 22.9074 23.989 22.9755 23.5304 22.5841C21.7313 21.0489 19.0433 21.1985 17.4258 22.9239L17.0236 23.3529Z" fill="#4AD991"/>
</svg>
