<svg width="41" height="41" viewBox="0 0 41 41" fill="none" xmlns="http://www.w3.org/2000/svg">
<rect width="41" height="41" rx="20.5" fill="#FFF0E6"/>
<path opacity="0.499209" fill-rule="evenodd" clip-rule="evenodd" d="M10.7066 23.9762C10.466 23.8373 10.4068 23.5079 10.652 23.3773L19.6208 18.6004C19.9973 18.3998 20.4489 18.3998 20.8254 18.6004L29.7942 23.3773C29.9774 23.4749 29.9444 23.7227 29.7647 23.8265L20.2845 29.2998C20.1754 29.3628 20.0364 29.3628 19.9273 29.2998L10.7066 23.9762Z" fill="#FEC53D"/>
<path opacity="0.499209" fill-rule="evenodd" clip-rule="evenodd" d="M10.7066 16.4596C10.466 16.3206 10.4068 15.9913 10.652 15.8607L19.6208 11.0837C19.9973 10.8832 20.4489 10.8832 20.8254 11.0837L29.7942 15.8607C29.9774 15.9583 29.9444 16.206 29.7647 16.3098L20.2845 21.7832C20.1754 21.8461 20.0364 21.8461 19.9273 21.7832L10.7066 16.4596Z" fill="#FEC53D"/>
<path opacity="0.499209" fill-rule="evenodd" clip-rule="evenodd" d="M10.7066 16.4596C10.466 16.3206 10.4068 15.9913 10.652 15.8607L19.6208 11.0837C19.9973 10.8832 20.4489 10.8832 20.8254 11.0837L29.7942 15.8607C29.9774 15.9583 29.9444 16.206 29.7647 16.3098L20.2845 21.7832C20.1754 21.8461 20.0364 21.8461 19.9273 21.7832L10.7066 16.4596Z" fill="#FEC53D"/>
<path opacity="0.499209" fill-rule="evenodd" clip-rule="evenodd" d="M10.7066 20.5596C10.466 20.4206 10.4068 20.0913 10.652 19.9607L19.6208 15.1837C19.9973 14.9832 20.4489 14.9832 20.8254 15.1837L29.7942 19.9607C29.9774 20.0583 29.9444 20.306 29.7647 20.4098L20.2845 25.8832C20.1754 25.9462 20.0364 25.9462 19.9273 25.8832L10.7066 20.5596Z" fill="#FEC53D"/>
</svg>
