<svg width="40" height="41" viewBox="0 0 40 41" fill="none" xmlns="http://www.w3.org/2000/svg">
<circle cx="20" cy="20.5" r="20" fill="#F5F6FA"/>
<g clip-path="url(#clip0_21_1055)">
<path d="M20.5648 29.5H19.4351C18.5215 29.5 17.7781 28.7567 17.7781 27.843V27.4608C17.3896 27.3367 17.0122 27.18 16.6497 26.9924L16.3788 27.2633C15.7229 27.92 14.6721 27.9008 14.0351 27.263L13.2367 26.4646C12.5987 25.8273 12.5803 24.7768 13.2369 24.1209L13.5076 23.8503C13.3199 23.4877 13.1633 23.1104 13.0392 22.7219H12.657C11.7434 22.7219 11 21.9785 11 21.0649V19.9351C11 19.0215 11.7434 18.2781 12.6571 18.2781H13.0392C13.1633 17.8896 13.32 17.5123 13.5076 17.1497L13.2367 16.8789C12.5805 16.2234 12.5986 15.1728 13.237 14.5352L14.0355 13.7367C14.6739 13.0975 15.7244 13.0815 16.3791 13.737L16.6497 14.0076C17.0123 13.82 17.3897 13.6633 17.7781 13.5392V13.157C17.7781 12.2433 18.5215 11.5 19.4352 11.5H20.5649C21.4785 11.5 22.2219 12.2433 22.2219 13.157V13.5392C22.6103 13.6633 22.9877 13.82 23.3503 14.0076L23.6211 13.7367C24.2771 13.08 25.3279 13.0992 25.9648 13.737L26.7633 14.5354C27.4013 15.1727 27.4197 16.2232 26.763 16.8791L26.4924 17.1497C26.68 17.5123 26.8367 17.8896 26.9608 18.2781H27.3429C28.2566 18.2781 29 19.0215 29 19.9351V21.0649C29 21.9785 28.2566 22.7219 27.3429 22.7219H26.9608C26.8367 23.1104 26.68 23.4877 26.4924 23.8503L26.7633 24.1211C27.4195 24.7767 27.4014 25.8272 26.763 26.4648L25.9645 27.2633C25.3261 27.9026 24.2756 27.9185 23.6209 27.2631L23.3503 26.9925C22.9877 27.1801 22.6103 27.3367 22.2219 27.4609V27.8431C22.2219 28.7567 21.4785 29.5 20.5648 29.5ZM16.826 25.8849C17.3297 26.1828 17.8718 26.4078 18.4372 26.5537C18.6701 26.6138 18.8328 26.8238 18.8328 27.0643V27.843C18.8328 28.1751 19.1031 28.4453 19.4352 28.4453H20.5649C20.897 28.4453 21.1672 28.1751 21.1672 27.843V27.0643C21.1672 26.8238 21.3299 26.6138 21.5628 26.5537C22.1283 26.4078 22.6704 26.1828 23.174 25.8849C23.3813 25.7623 23.6451 25.7957 23.8154 25.9659L24.3669 26.5175C24.6047 26.7556 24.9866 26.75 25.2186 26.5177L26.0176 25.7188C26.249 25.4877 26.2567 25.1057 26.0178 24.8671L25.466 24.3153C25.2958 24.1451 25.2624 23.8812 25.385 23.674C25.6828 23.1704 25.9078 22.6283 26.0538 22.0628C26.1139 21.8299 26.3239 21.6672 26.5644 21.6672H27.343C27.6751 21.6672 27.9453 21.397 27.9453 21.0649V19.9352C27.9453 19.6031 27.6751 19.3328 27.343 19.3328H26.5644C26.3239 19.3328 26.1139 19.1701 26.0538 18.9373C25.9078 18.3718 25.6828 17.8297 25.385 17.3261C25.2624 17.1188 25.2958 16.855 25.466 16.6847L26.0176 16.1332C26.256 15.895 26.2498 15.5132 26.0178 15.2815L25.2188 14.4826C24.9873 14.2507 24.6053 14.2439 24.3672 14.4824L23.8154 15.0342C23.6452 15.2044 23.3813 15.2377 23.1741 15.1152C22.6704 14.8173 22.1283 14.5923 21.5628 14.4463C21.33 14.3863 21.1673 14.1762 21.1673 13.9357V13.157C21.1673 12.8249 20.897 12.5547 20.5649 12.5547H19.4352C19.1031 12.5547 18.8328 12.8249 18.8328 13.157V13.9357C18.8328 14.1762 18.6701 14.3862 18.4373 14.4463C17.8718 14.5922 17.3297 14.8172 16.826 15.1151C16.6187 15.2376 16.3549 15.2043 16.1847 15.0341L15.6331 14.4825C15.3953 14.2444 15.0134 14.25 14.7815 14.4823L13.9825 15.2812C13.7511 15.5123 13.7434 15.8942 13.9823 16.1329L14.5341 16.6847C14.7043 16.8549 14.7376 17.1188 14.6151 17.326C14.3172 17.8296 14.0922 18.3717 13.9463 18.9372C13.8862 19.1701 13.6762 19.3328 13.4357 19.3328H12.6571C12.3249 19.3328 12.0547 19.603 12.0547 19.9351V21.0649C12.0547 21.397 12.3249 21.6672 12.6571 21.6672H13.4357C13.6762 21.6672 13.8862 21.8299 13.9463 22.0627C14.0922 22.6282 14.3172 23.1703 14.6151 23.674C14.7376 23.8812 14.7043 24.1451 14.534 24.3153L13.9825 24.8669C13.7441 25.105 13.7503 25.4868 13.9823 25.7185L14.7812 26.5174C15.0128 26.7493 15.3947 26.7561 15.6329 26.5177L16.1846 25.9659C16.31 25.8405 16.571 25.7341 16.826 25.8849Z" fill="#676769"/>
<path d="M20 24.4164C17.8405 24.4164 16.0836 22.6595 16.0836 20.5C16.0836 18.3405 17.8405 16.5836 20 16.5836C22.1596 16.5836 23.9164 18.3405 23.9164 20.5C23.9164 22.6595 22.1596 24.4164 20 24.4164ZM20 17.6383C18.422 17.6383 17.1383 18.922 17.1383 20.5C17.1383 22.0779 18.4221 23.3617 20 23.3617C21.578 23.3617 22.8617 22.0779 22.8617 20.5C22.8617 18.922 21.578 17.6383 20 17.6383Z" fill="#676769"/>
</g>
<defs>
<clipPath id="clip0_21_1055">
<rect width="18" height="18" fill="white" transform="translate(11 11.5)"/>
</clipPath>
</defs>
</svg>
