<svg width="69" height="24" viewBox="0 0 69 24" fill="none" xmlns="http://www.w3.org/2000/svg">
<path d="M0.320557 2C0.320557 0.89543 1.21599 0 2.32056 0H67C68.1046 0 69 0.895431 69 2V22C69 23.1046 68.1046 24 67 24H2.32056C1.21599 24 0.320557 23.1046 0.320557 22V2Z" fill="#FFF0E6"/>
<path d="M11.5126 16V8.2H8.35656V7.54H15.4126V8.2H12.2566V16H11.5126ZM17.8075 16.096C17.2635 16.096 16.7915 15.976 16.3915 15.736C15.9915 15.488 15.6795 15.14 15.4555 14.692C15.2395 14.236 15.1315 13.7 15.1315 13.084C15.1315 12.476 15.2395 11.948 15.4555 11.5C15.6795 11.044 15.9915 10.692 16.3915 10.444C16.7915 10.196 17.2635 10.072 17.8075 10.072C18.3595 10.072 18.8355 10.196 19.2355 10.444C19.6355 10.692 19.9435 11.044 20.1595 11.5C20.3835 11.948 20.4955 12.476 20.4955 13.084C20.4955 13.7 20.3835 14.236 20.1595 14.692C19.9435 15.14 19.6355 15.488 19.2355 15.736C18.8355 15.976 18.3595 16.096 17.8075 16.096ZM17.8075 15.484C18.3995 15.484 18.8715 15.276 19.2235 14.86C19.5755 14.436 19.7515 13.844 19.7515 13.084C19.7515 12.324 19.5755 11.736 19.2235 11.32C18.8715 10.904 18.3995 10.696 17.8075 10.696C17.2155 10.696 16.7435 10.904 16.3915 11.32C16.0475 11.736 15.8755 12.324 15.8755 13.084C15.8755 13.844 16.0475 14.436 16.3915 14.86C16.7435 15.276 17.2155 15.484 17.8075 15.484ZM24.274 16.096C23.746 16.096 23.29 15.976 22.906 15.736C22.522 15.488 22.222 15.14 22.006 14.692C21.798 14.236 21.694 13.7 21.694 13.084C21.694 12.164 21.926 11.432 22.39 10.888C22.854 10.344 23.482 10.072 24.274 10.072C24.738 10.072 25.146 10.18 25.498 10.396C25.858 10.604 26.126 10.892 26.302 11.26V7.54H27.034V16H26.314V14.896C26.138 15.272 25.87 15.568 25.51 15.784C25.158 15.992 24.746 16.096 24.274 16.096ZM24.37 15.484C24.962 15.484 25.434 15.276 25.786 14.86C26.138 14.436 26.314 13.844 26.314 13.084C26.314 12.324 26.138 11.736 25.786 11.32C25.434 10.904 24.962 10.696 24.37 10.696C23.778 10.696 23.306 10.904 22.954 11.32C22.61 11.736 22.438 12.324 22.438 13.084C22.438 13.844 22.61 14.436 22.954 14.86C23.306 15.276 23.778 15.484 24.37 15.484ZM30.7563 16.096C30.3643 16.096 30.0123 16.02 29.7003 15.868C29.3963 15.716 29.1523 15.508 28.9683 15.244C28.7923 14.98 28.7043 14.684 28.7043 14.356C28.7043 13.924 28.8123 13.588 29.0283 13.348C29.2443 13.1 29.6083 12.924 30.1203 12.82C30.6323 12.716 31.3363 12.664 32.2323 12.664H32.6043V12.232C32.6043 11.696 32.4963 11.308 32.2803 11.068C32.0643 10.82 31.7203 10.696 31.2483 10.696C30.8963 10.696 30.5563 10.748 30.2283 10.852C29.9083 10.956 29.5763 11.12 29.2323 11.344L28.9443 10.78C29.2483 10.564 29.6083 10.392 30.0243 10.264C30.4403 10.136 30.8443 10.072 31.2363 10.072C31.9403 10.072 32.4603 10.252 32.7963 10.612C33.1403 10.972 33.3123 11.524 33.3123 12.268V16H32.6163V14.956C32.4563 15.316 32.2123 15.596 31.8843 15.796C31.5643 15.996 31.1883 16.096 30.7563 16.096ZM30.8523 15.508C31.1963 15.508 31.4963 15.428 31.7523 15.268C32.0163 15.1 32.2243 14.872 32.3763 14.584C32.5283 14.296 32.6043 13.968 32.6043 13.6V13.204H32.2443C31.5243 13.204 30.9603 13.236 30.5523 13.3C30.1523 13.364 29.8723 13.476 29.7123 13.636C29.5523 13.796 29.4723 14.016 29.4723 14.296C29.4723 14.656 29.5963 14.948 29.8443 15.172C30.0923 15.396 30.4283 15.508 30.8523 15.508ZM35.9113 18.16L36.8713 15.976L34.3993 10.18H35.2153L37.2673 15.196L39.3433 10.18H40.1353L36.7033 18.16H35.9113Z" fill="#1E1E1E"/>
<path fill-rule="evenodd" clip-rule="evenodd" d="M50.5044 6.25003C50.5136 6.25003 50.5228 6.25003 50.5321 6.25003L58.8162 6.25003C59.2095 6.25001 59.5458 6.25 59.8145 6.2839C60.0995 6.31985 60.375 6.40059 60.6012 6.61287C60.8315 6.82889 60.923 7.09841 60.9631 7.37883C61.0001 7.63642 61 7.95673 61 8.32214L61 8.78009C61 9.06819 61 9.31725 60.9785 9.52493C60.9554 9.74842 60.9048 9.95809 60.7833 10.1594C60.6627 10.3592 60.5004 10.5042 60.3132 10.6342C60.1369 10.7567 59.9117 10.8835 59.6467 11.0326L57.9115 12.0094C57.5165 12.2318 57.3789 12.3118 57.2871 12.3916C57.0762 12.5746 56.9554 12.7778 56.8987 13.0323C56.8744 13.1411 56.8718 13.2781 56.8718 13.6943L56.8718 15.3055C56.8718 15.837 56.8719 16.2882 56.8172 16.6351C56.759 17.004 56.624 17.3578 56.2701 17.5791C55.9243 17.7954 55.5434 17.7755 55.1732 17.6876C54.8167 17.603 54.3774 17.4312 53.8502 17.2251L53.799 17.205C53.552 17.1085 53.3358 17.024 53.1646 16.9356C52.9806 16.8406 52.8098 16.7224 52.6791 16.5385C52.5469 16.3525 52.4939 16.153 52.4703 15.9491C52.4487 15.7632 52.4487 15.54 52.4488 15.2911L52.4488 13.6943C52.4488 13.2781 52.4461 13.1411 52.4219 13.0323C52.3651 12.7778 52.2444 12.5746 52.0335 12.3916C51.9417 12.3118 51.8041 12.2318 51.4091 12.0094L49.6738 11.0326C49.4089 10.8835 49.1837 10.7567 49.0074 10.6342C48.8202 10.5042 48.6578 10.3592 48.5373 10.1594C48.4158 9.95809 48.3652 9.74842 48.3421 9.52493C48.3205 9.31724 48.3205 9.06819 48.3206 8.78009L48.3206 8.35226C48.3206 8.34218 48.3206 8.33214 48.3206 8.32213C48.3205 7.95672 48.3205 7.63642 48.3574 7.37883C48.3976 7.09841 48.4891 6.82889 48.7193 6.61287C48.9456 6.40059 49.2211 6.31985 49.5061 6.2839C49.7748 6.25 50.1111 6.25001 50.5044 6.25003ZM49.6168 7.16155C49.42 7.18637 49.3574 7.22718 49.3246 7.25799C49.2957 7.28506 49.2577 7.33271 49.2331 7.50431C49.2062 7.69168 49.2052 7.94771 49.2052 8.35226V8.75907C49.2052 9.07412 49.2057 9.27704 49.222 9.43378C49.2371 9.57974 49.263 9.64993 49.2947 9.70233C49.3272 9.75623 49.3812 9.81679 49.512 9.90766C49.6499 10.0034 49.8382 10.1099 50.1251 10.2715L51.8431 11.2386C51.8591 11.2476 51.875 11.2565 51.8906 11.2653C52.2201 11.4507 52.4445 11.5769 52.6134 11.7236C52.9622 12.0263 53.1859 12.3941 53.2853 12.8398C53.3336 13.0564 53.3335 13.2993 53.3334 13.6421C53.3334 13.6593 53.3334 13.6767 53.3334 13.6943V15.2686C53.3334 15.547 53.334 15.7183 53.349 15.8473C53.3625 15.9639 53.3838 16.003 53.4002 16.0261C53.418 16.0512 53.4534 16.0892 53.5705 16.1496C53.6957 16.2143 53.8683 16.2824 54.1409 16.3889C54.7076 16.6105 55.0888 16.7584 55.3777 16.827C55.6599 16.894 55.7529 16.8592 55.801 16.8291C55.8411 16.8041 55.903 16.7531 55.9434 16.4974C55.9859 16.2276 55.9872 15.8472 55.9872 15.2686V13.6943C55.9872 13.6767 55.9872 13.6593 55.9872 13.6421C55.9871 13.2993 55.987 13.0564 56.0353 12.8398C56.1347 12.3941 56.3584 12.0263 56.7072 11.7236C56.8761 11.5769 57.1005 11.4507 57.4299 11.2653C57.4456 11.2565 57.4614 11.2476 57.4775 11.2386L59.1954 10.2715C59.4824 10.1099 59.6707 10.0034 59.8085 9.90766C59.9394 9.81679 59.9934 9.75623 60.0259 9.70233C60.0575 9.64993 60.0835 9.57974 60.0986 9.43378C60.1148 9.27704 60.1154 9.07412 60.1154 8.75907V8.35226C60.1154 7.94771 60.1143 7.69168 60.0875 7.50431C60.0629 7.33271 60.0248 7.28506 59.996 7.25799C59.9631 7.22718 59.9006 7.18637 59.7038 7.16155C59.497 7.13547 59.2172 7.13464 58.7885 7.13464H50.5321C50.1033 7.13464 49.8235 7.13547 49.6168 7.16155Z" fill="#686868"/>
</svg>
